<svg xmlns="http://www.w3.org/2000/svg" xmlns:xlink="http://www.w3.org/1999/xlink" version="1.1" x="0px" y="0px" viewBox="0 0 100 125" enable-background="new 0 0 100 100" xml:space="preserve"><path fill="#000000" d="M44.29,5.75c0.599,0,1.085,0.486,1.085,1.085V34.33c0,2.03-0.83,3.85-2.17,5.17l0,0  c-1.44,1.422-2.25,3.362-2.25,5.386V91.42c0,1.563-1.267,2.83-2.83,2.83h0c-1.563,0-2.83-1.267-2.83-2.83V44.554  c0-1.812-0.725-3.548-2.014-4.821L33.045,39.5c-1.34-1.32-2.17-3.14-2.17-5.17V6.835c0-0.599,0.486-1.085,1.085-1.085h0  c0.599,0,1.085,0.486,1.085,1.085V24.7c0,0.536,0.434,0.97,0.97,0.97l0,0c0.536,0,0.97-0.434,0.97-0.97V6.835  c0-0.599,0.486-1.085,1.085-1.085l0,0c0.599,0,1.085,0.486,1.085,1.085V24.7c0,0.536,0.434,0.97,0.97,0.97l0,0  c0.536,0,0.97-0.434,0.97-0.97V6.835c0-0.599,0.486-1.085,1.085-1.085l0,0c0.599,0,1.085,0.486,1.085,1.085V24.7  c0,0.536,0.434,0.97,0.97,0.97l0,0c0.536,0,0.97-0.434,0.97-0.97V6.835C43.205,6.236,43.691,5.75,44.29,5.75L44.29,5.75z"/><path fill="#000000" d="M58.735,27.851c-0.577,7.577,2.969,14.725,4.217,18.204c0.275,0.768,0.796,1.383,1.448,1.765  c0.103,0.06,0.168,0.166,0.166,0.286l-0.652,43.5c-0.022,1.454,1.151,2.644,2.605,2.644h0c1.439,0,2.605-1.166,2.605-2.605v-43.39  l0-41.228c0-1.112-1.347-1.682-2.14-0.901C61.401,11.629,59.335,19.974,58.735,27.851z"/><text x="0" y="115" fill="#000000" font-size="5px" font-weight="bold" font-family="'Helvetica Neue', Helvetica, Arial-Unicode, Arial, Sans-serif">Created by Mona Sharma</text><text x="0" y="120" fill="#000000" font-size="5px" font-weight="bold" font-family="'Helvetica Neue', Helvetica, Arial-Unicode, Arial, Sans-serif">from the Noun Project</text></svg>