<?xml version="1.0" encoding="UTF-8"?>
<svg width="48px" height="32px" viewBox="0 0 48 32" version="1.1" xmlns="http://www.w3.org/2000/svg" xmlns:xlink="http://www.w3.org/1999/xlink">
    <!-- Generator: Sketch 46.1 (44463) - http://www.bohemiancoding.com/sketch -->
    <title>Octo / Icons / Fork and knife</title>
    <desc>Created with Sketch.</desc>
    <defs></defs>
    <g id="Symbols" stroke="none" stroke-width="1" fill="none" fill-rule="evenodd">
        <g id="Octo-/-Icons-/-Fork-and-knife">
            <rect id="Rectangle" x="0" y="0" width="48" height="32"></rect>
            <g id="fork-and-knife" transform="translate(18.000000, 5.000000)" fill-rule="nonzero" fill="#007AFF">
                <path d="M3.70068966,0 C3.86593103,0 4,0.126305085 4,0.281977401 L4,7.42757062 C4,7.95514124 3.77103448,8.42813559 3.40137931,8.77118644 L3.40137931,8.77118644 C3.00413793,9.14074576 2.78068966,9.64492655 2.78068966,10.1709379 L2.78068966,22.2645198 C2.78068966,22.6707232 2.43117241,23 2,23 L2,23 C1.56882759,23 1.21931034,22.6707232 1.21931034,22.2645198 L1.21931034,10.0846554 C1.21931034,9.61374011 1.01931034,9.16257627 0.663724138,8.83174011 L0.59862069,8.77118644 C0.228965517,8.42813559 0,7.95514124 0,7.42757062 L0,0.281977401 C0,0.126305085 0.134068966,0 0.299310345,0 L0.299310345,0 C0.464551724,0 0.59862069,0.126305085 0.59862069,0.281977401 L0.59862069,4.92485876 C0.59862069,5.06415819 0.718344828,5.17694915 0.866206897,5.17694915 L0.866206897,5.17694915 C1.01406897,5.17694915 1.1337931,5.06415819 1.1337931,4.92485876 L1.1337931,0.281977401 C1.1337931,0.126305085 1.26786207,0 1.43310345,0 L1.43310345,0 C1.59834483,0 1.73241379,0.126305085 1.73241379,0.281977401 L1.73241379,4.92485876 C1.73241379,5.06415819 1.85213793,5.17694915 2,5.17694915 L2,5.17694915 C2.14786207,5.17694915 2.26758621,5.06415819 2.26758621,4.92485876 L2.26758621,0.281977401 C2.26758621,0.126305085 2.40165517,0 2.56689655,0 L2.56689655,0 C2.73213793,0 2.8662069,0.126305085 2.8662069,0.281977401 L2.8662069,4.92485876 C2.8662069,5.06415819 2.98593103,5.17694915 3.1337931,5.17694915 L3.1337931,5.17694915 C3.28165517,5.17694915 3.40137931,5.06415819 3.40137931,4.92485876 L3.40137931,0.281977401 C3.40137931,0.126305085 3.53544828,0 3.70068966,0 L3.70068966,0 Z" id="Shape"></path>
                <path d="M10.0180724,5.74088474 C9.85245761,7.710377 10.8702567,9.56835913 11.2284669,10.4726568 C11.3073995,10.6722833 11.4569407,10.8321405 11.6440826,10.9314339 C11.6736464,10.9470297 11.6923032,10.9745823 11.6917291,11.005774 L11.5045873,22.3127442 C11.4982727,22.6906829 11.8349558,23 12.2522936,23 L12.2522936,23 C12.6653261,23 13,22.6969212 13,22.3228814 L13,11.0445036 L13,0.328095147 C13,0.0390525984 12.6133741,-0.109107701 12.3857614,0.0938979021 C10.7832874,1.52429461 10.1902889,3.69341338 10.0180724,5.74088474 Z" id="Shape"></path>
            </g>
        </g>
    </g>
</svg>