<?xml version="1.0" encoding="UTF-8"?>
<svg width="40px" height="90px" viewBox="0 0 40 90" version="1.1" xmlns="http://www.w3.org/2000/svg" xmlns:xlink="http://www.w3.org/1999/xlink">
    <!-- Generator: Sketch 46.1 (44463) - http://www.bohemiancoding.com/sketch -->
    <title>fork and knife noun_1181336_cc</title>
    <desc>Created with Sketch.</desc>
    <defs></defs>
    <g id="scrach" stroke="none" stroke-width="1" fill="none" fill-rule="evenodd">
        <g id="fork-and-knife-noun_1181336_cc" fill-rule="nonzero" fill="#000000">
            <path d="M14.29,0.75 C14.889,0.75 15.375,1.236 15.375,1.835 L15.375,29.33 C15.375,31.36 14.545,33.18 13.205,34.5 L13.205,34.5 C11.765,35.922 10.955,37.862 10.955,39.886 L10.955,86.42 C10.955,87.983 9.688,89.25 8.125,89.25 L8.125,89.25 C6.562,89.25 5.295,87.983 5.295,86.42 L5.295,39.554 C5.295,37.742 4.57,36.006 3.281,34.733 L3.045,34.5 C1.705,33.18 0.875,31.36 0.875,29.33 L0.875,1.835 C0.875,1.236 1.361,0.75 1.96,0.75 L1.96,0.75 C2.559,0.75 3.045,1.236 3.045,1.835 L3.045,19.7 C3.045,20.236 3.479,20.67 4.015,20.67 L4.015,20.67 C4.551,20.67 4.985,20.236 4.985,19.7 L4.985,1.835 C4.985,1.236 5.471,0.75 6.07,0.75 L6.07,0.75 C6.669,0.75 7.155,1.236 7.155,1.835 L7.155,19.7 C7.155,20.236 7.589,20.67 8.125,20.67 L8.125,20.67 C8.661,20.67 9.095,20.236 9.095,19.7 L9.095,1.835 C9.095,1.236 9.581,0.75 10.18,0.75 L10.18,0.75 C10.779,0.75 11.265,1.236 11.265,1.835 L11.265,19.7 C11.265,20.236 11.699,20.67 12.235,20.67 L12.235,20.67 C12.771,20.67 13.205,20.236 13.205,19.7 L13.205,1.835 C13.205,1.236 13.691,0.75 14.29,0.75 L14.29,0.75 Z" id="Shape"></path>
            <path d="M28.735,22.851 C28.158,30.428 31.704,37.576 32.952,41.055 C33.227,41.823 33.748,42.438 34.4,42.82 C34.503,42.88 34.568,42.986 34.566,43.106 L33.914,86.606 C33.892,88.06 35.065,89.25 36.519,89.25 L36.519,89.25 C37.958,89.25 39.124,88.084 39.124,86.645 L39.124,43.255 L39.124,2.027 C39.124,0.915 37.777,0.345 36.984,1.126 C31.401,6.629 29.335,14.974 28.735,22.851 Z" id="Shape"></path>
        </g>
    </g>
</svg>